#!OML:ASF I:\Actors\actors\Patient Classification 2\Patient 1\Session 1\actor1.ASF
:FULLY-SPECIFIED
:DEGREES
664
root 0.466767 18.7586 6.18303 7.87105 -10.8524 4.02751
lowerback 23.4169 -2.64136 5.81579
upperback -0.647208 -0.678196 8.66193
thorax -13.996 -0.302146 6.94912
lowerneck -15.6219 1.98642 6.58803
upperneck 12.1862 1.96967 -4.87399
head 6.37802 0.856321 -2.44197
rclavicle -1.35174e-014 -3.18055e-015
rhumerus -37.6528 -37.32 0.547686
rradius 42.2424
rwrist 11.2846
rhand -14.1364 -46.7102
rfingers 7.12502
rthumb 11.9976 -76.3463
lclavicle -1.35174e-014 -3.18055e-015
lhumerus -14.0947 49.2313 7.50788
lradius 35.6883
lwrist -21.2467
lhand -1.45069 -16.241
lfingers 7.12502
lthumb 24.2002 12.2521
rfemur -1.76713 9.28635 3.90162
rtibia -1.59028e-015
rfoot -18.8014 -13.3255
rtoes -0.332809
lfemur -11.9111 9.82425 -23.1416
ltibia 22.6423
lfoot -19.1123 4.35942
ltoes -52.5317
665
root 0.44743 18.762 6.17396 7.95856 -11.3033 3.93286
lowerback 23.4839 -2.67291 5.7148
upperback -0.624794 -0.755072 8.5849
thorax -13.9996 -0.334369 6.94543
lowerneck -15.5275 2.16377 6.67417
upperneck 12.1438 2.22803 -5.0806
head 6.36754 0.969036 -2.4967
rclavicle -3.18055e-015 3.18055e-015
rhumerus -37.6848 -37.1332 0.53648
rradius 42.3283
rwrist 11.1299
rhand -14.092 -46.7156
rfingers 7.12502
rthumb 12.0404 -76.3493
lclavicle -3.18055e-015 3.18055e-015
lhumerus -14.0149 49.1222 7.7079
lradius 35.7352
lwrist -21.1567
lhand -1.53389 -16.0709
lfingers 7.12502
lthumb 24.1204 12.4328
rfemur -2.05449 9.7124 3.98868
rtibia 1.27222e-014
rfoot -18.7328 -13.4215
rtoes -0.433374
lfemur -11.948 9.94583 -23.0331
ltibia 22.5636
lfoot -19.1617 4.71428
ltoes -52.7019
666
root 0.427243 18.7663 6.1646 8.05572 -11.7444 3.80145
lowerback 23.5522 -2.71047 5.65385
upperback -0.602235 -0.832126 8.48216
thorax -14.0045 -0.37092 6.88807
lowerneck -15.3746 2.33234 6.82762
upperneck 11.9808 2.46763 -5.33672
head 6.30986 1.07234 -2.57988
rclavicle 6.36111e-014 -1.46306e-013
rhumerus -37.7141 -36.9661 0.50443
rradius 42.3711
rwrist 11.0958
rhand -14.1068 -46.786
rfingers 7.12502
rthumb 12.0262 -76.4204
lclavicle 6.36111e-014 -1.46306e-013
lhumerus -13.8397 49.1227 7.90766
lradius 35.6994
lwrist -21.2052
lhand -1.71084 -15.9548
lfingers 7.12502
lthumb 23.9507 12.5713
rfemur -2.3393 10.1351 4.11985
rtibia -3.49861e-014
rfoot -18.6194 -13.5427
rtoes -0.693691
lfemur -11.9923 10.0524 -22.8815
ltibia 22.4984
lfoot -19.215 5.08949
ltoes -52.8359
667
root 0.407956 18.7706 6.15585 8.13766 -12.1483 3.67016
lowerback 23.6187 -2.77872 5.59914
upperback -0.565038 -0.950191 8.37539
thorax -13.988 -0.427074 6.83532
lowerneck -15.2085 2.50041 6.94194
upperneck 11.7023 2.70847 -5.56884
head 6.21348 1.17674 -2.64833
rclavicle 3.18055e-014 -7.31528e-014
rhumerus -37.6167 -36.8919 0.419373
rradius 42.3261
rwrist 11.1465
rhand -14.1218 -46.8149
rfingers 7.12502
rthumb 12.0116 -76.4502
lclavicle 3.18055e-014 -7.31528e-014
lhumerus -13.7406 49.1693 8.06197
lradius 35.6655
lwrist -21.211
lhand -1.78483 -15.7942
lfingers 7.12502
lthumb 23.8798 12.7412
rfemur -2.58712 10.5279 4.25675
rtibia 4.77083e-015
rfoot -18.4857 -13.6644
rtoes -1.16056
lfemur -12.0165 10.0242 -22.7197
ltibia 22.4463
lfoot -19.3065 5.50168
ltoes -52.8111
668
root 0.388675 18.7743 6.14908 8.2296 -12.5338 3.52371
lowerback 23.662 -2.84153 5.55184
upperback -0.543727 -1.05876 8.27733
thorax -13.9785 -0.478793 6.78529
lowerneck -15.0859 2.65548 7.01069
upperneck 11.4862 2.93973 -5.79981
head 6.14402 1.27464 -2.71036
rclavicle 4.13472e-014 6.04305e-014
rhumerus -37.5547 -36.94 0.39063
rradius 42.2974
rwrist 11.3138
rhand -14.1304 -46.7092
rfingers 7.12502
rthumb 12.0033 -76.345
lclavicle 4.13472e-014 6.04305e-014
lhumerus -13.6567 49.1695 8.28067
lradius 35.6314
lwrist -21.0515
lhand -1.89104 -15.757
lfingers 7.12502
lthumb 23.7779 12.7917
rfemur -2.82384 10.905 4.41016
rtibia -1.43125e-014
rfoot -18.3606 -13.7943
rtoes -1.68584
lfemur -12.0444 10.0301 -22.5439
ltibia 22.3971
lfoot -19.3934 5.85538
ltoes -52.8218
669
root 0.368908 18.7779 6.14359 8.34078 -12.9339 3.40574
lowerback 23.6486 -2.86789 5.47983
upperback -0.522709 -1.13669 8.14874
thorax -13.939 -0.517056 6.69735
lowerneck -15.0693 2.80364 7.10479
upperneck 11.3763 3.15207 -6.03026
head 6.12603 1.36347 -2.77839
rclavicle -7.95139e-016 -7.95139e-014
rhumerus -37.6196 -37.0651 0.403616
rradius 42.3325
rwrist 11.5456
rhand -14.1101 -46.5867
rfingers 7.12502
rthumb 12.0229 -76.2213
lclavicle -7.95139e-016 -7.95139e-014
lhumerus -13.4875 49.1499 8.56589
lradius 35.5809
lwrist -20.7507
lhand -2.02911 -16.0914
lfingers 7.12502
lthumb 23.6455 12.4745
rfemur -3.09206 11.2858 4.52111
rtibia -6.36111e-015
rfoot -18.2841 -13.9266
rtoes -1.89661
lfemur -12.0922 10.026 -22.4086
ltibia 22.345
lfoot -19.51 6.21463
ltoes -52.8471
